<svg width="16" height="16" viewBox="0 0 16 16" fill="none" xmlns="http://www.w3.org/2000/svg">
<path d="M13.2796 4.57053C13.2796 4.16015 13.2794 3.89423 13.2639 3.69162C13.2489 3.49627 13.2231 3.42374 13.2069 3.38986C13.144 3.25837 13.0477 3.16092 12.9408 3.10275C12.9258 3.09462 12.8756 3.06992 12.7031 3.0549C12.5201 3.039 12.2773 3.0383 11.889 3.0383H4.11194C3.72336 3.0383 3.47997 3.03899 3.29682 3.0549C3.12404 3.06993 3.07407 3.09466 3.05916 3.10275C2.95256 3.16069 2.85619 3.25784 2.79302 3.38986C2.77675 3.42386 2.75107 3.49687 2.73606 3.6926C2.72052 3.89558 2.72034 4.16236 2.72034 4.57346V9.43186L4.57351 7.1301L4.58922 7.11154C4.7176 6.95201 4.84211 6.79654 4.9575 6.676C5.08041 6.54762 5.25098 6.3941 5.48978 6.30393L5.61254 6.26389C5.86105 6.19548 6.12271 6.19788 6.36972 6.26975L6.49248 6.31174L6.65746 6.39182C6.81054 6.48108 6.92787 6.59296 7.01887 6.69064C7.13686 6.81732 7.26453 6.98164 7.39598 7.14963L9.18728 9.43869C9.27748 9.55396 9.34327 9.63227 9.39253 9.69162C9.44673 9.63713 9.52021 9.56587 9.62037 9.4592L9.95329 9.10471C10.0909 8.95814 10.2264 8.81235 10.35 8.70139C10.4782 8.58643 10.6532 8.45234 10.8882 8.3801L11.009 8.34885C11.254 8.2971 11.5066 8.31336 11.7416 8.39279L11.8575 8.43771L12.0127 8.51975C12.1568 8.6099 12.2673 8.71918 12.3535 8.81564C12.4643 8.93979 12.5832 9.09972 12.7051 9.26193L13.2796 10.0256V4.57053ZM5.97984 7.78928C5.92487 7.85337 5.85392 7.94023 5.75298 8.06564L5.752 8.06662L2.72231 11.8303C2.72401 12.0496 2.72735 12.2115 2.739 12.342C2.75419 12.5118 2.77786 12.5779 2.79302 12.6096C2.85661 12.7425 2.9533 12.8402 3.05916 12.8977C3.07396 12.9057 3.12344 12.9305 3.29584 12.9455C3.4786 12.9614 3.72118 12.9621 4.10899 12.9621H11.8909C12.2789 12.9621 12.5214 12.9614 12.7041 12.9455C12.8762 12.9305 12.9259 12.9058 12.9408 12.8977C13.0469 12.8399 13.1435 12.742 13.2069 12.6096C13.2174 12.5877 13.229 12.5516 13.2413 12.4817L11.4961 10.1594C11.4034 10.036 11.338 9.95144 11.2879 9.88889C11.2325 9.94457 11.1589 10.0188 11.0562 10.1281L10.7223 10.4826C10.5872 10.6265 10.4541 10.7697 10.3324 10.8791C10.206 10.9927 10.0342 11.1248 9.80304 11.1975C9.48978 11.2959 9.15032 11.2821 8.84355 11.1526C8.62181 11.0588 8.46361 10.9123 8.34859 10.7883C8.23759 10.6686 8.11832 10.5146 7.99701 10.3596L6.20571 8.07053C6.10541 7.94234 6.03429 7.85448 5.97984 7.78928ZM9.96115 5.83322C9.94721 5.8395 9.93814 5.84602 9.93365 5.8508C9.925 5.86003 9.92776 5.86415 9.92776 5.85764L9.93365 5.86545C9.93814 5.87023 9.94721 5.87674 9.96115 5.88303C9.97581 5.88963 9.99333 5.89377 10.0112 5.89377C10.0291 5.89377 10.0467 5.88963 10.0613 5.88303C10.0753 5.87674 10.0843 5.87023 10.0888 5.86545C10.0973 5.85645 10.0948 5.85182 10.0947 5.85764C10.0947 5.86415 10.0975 5.86003 10.0888 5.8508C10.0843 5.84602 10.0753 5.8395 10.0613 5.83322L10.0112 5.82248C9.99333 5.82248 9.97581 5.82662 9.96115 5.83322ZM11.4362 5.85764C11.4362 6.61691 10.8459 7.32248 10.0112 7.32248C9.17656 7.32248 8.58625 6.61691 8.58625 5.85764C8.5865 5.09854 9.17674 4.39377 10.0112 4.39377C10.8457 4.39377 11.436 5.09854 11.4362 5.85764ZM14.788 11.4289C14.788 11.7137 14.786 11.9673 14.7782 12.1867C14.7903 12.2791 14.7846 12.3713 14.7625 12.4612C14.7395 12.7301 14.6919 12.9973 14.569 13.2541C14.3753 13.6588 14.0608 13.999 13.6626 14.2151C13.3911 14.3623 13.1097 14.4158 12.8357 14.4397C12.572 14.4626 12.2523 14.4621 11.8909 14.4621H4.10899C3.74773 14.4621 3.42796 14.4626 3.16424 14.4397C2.89005 14.4158 2.60805 14.3625 2.33635 14.2151C1.93782 13.9988 1.62433 13.6584 1.43089 13.2541C1.30887 12.9991 1.25988 12.7365 1.23644 12.4738C1.21369 12.2187 1.21214 11.916 1.21188 11.5705V4.57346C1.21188 4.18527 1.21156 3.85162 1.23251 3.57834C1.25403 3.2977 1.30101 3.01678 1.43089 2.74533C1.62471 2.34027 1.93865 2.00124 2.33635 1.78537C2.60826 1.63783 2.89068 1.58464 3.16522 1.56076C3.42933 1.5378 3.74983 1.5383 4.11194 1.5383H11.889C12.2509 1.5383 12.5708 1.53781 12.8347 1.56076C13.1091 1.58464 13.3908 1.63801 13.6626 1.78537C14.06 2.001 14.3749 2.33977 14.569 2.74533C14.6988 3.0166 14.7459 3.29705 14.7674 3.57736C14.7883 3.8503 14.788 4.18312 14.788 4.57053V11.4289Z" fill="#DBDBDB"/>
</svg>
