<svg width="16" height="16" viewBox="0 0 16 16" fill="none" xmlns="http://www.w3.org/2000/svg">
<path d="M14 11.333C14 11.7472 13.6642 12.083 13.25 12.083H2.75C2.33579 12.083 2 11.7472 2 11.333C2 10.9188 2.33579 10.583 2.75 10.583H13.25C13.6642 10.583 14 10.9188 14 11.333Z" fill="#DBDBDB"/>
<path d="M14 8C14 8.41421 13.6642 8.75 13.25 8.75H2.75C2.33579 8.75 2 8.41421 2 8C2 7.58579 2.33579 7.25 2.75 7.25H13.25C13.6642 7.25 14 7.58579 14 8Z" fill="#DBDBDB"/>
<path d="M14 4.66699C14 5.08121 13.6642 5.41699 13.25 5.41699H2.75C2.33579 5.41699 2 5.08121 2 4.66699C2 4.25278 2.33579 3.91699 2.75 3.91699H13.25C13.6642 3.91699 14 4.25278 14 4.66699Z" fill="#DBDBDB"/>
</svg>
